<svg width="1280" height="72" viewBox="0 0 1280 72" xmlns="http://www.w3.org/2000/svg">
<rect width="100%" height="100%" fill="#FFFDCE" />
<path fill="#F9B2D7" d="M0 0h20v72h-20z"/>
<path fill="#F075AE" d="M20 0h20v72h-20z"/>
<path fill="#CFECF3" d="M40 0h20v72h-20z"/>
<path fill="#DAF9DE" d="M60 0h20v72h-20z"/>
<path fill="#F6FFDC" d="M80 0h20v72h-20z"/>
<path fill="#F7DB91" d="M100 0h20v72h-20z"/>
<path fill="#FFFDCE" d="M120 0h20v72h-20z"/>
<path fill="#9BC264" d="M140 0h20v72h-20z"/>
<path fill="#B8A7D1" d="M160 0h20v72h-20z"/>
<path fill="#D1B3A1" d="M180 0h20v72h-20z"/>
<path fill="#F9B2D7" d="M200 0h20v72h-20z"/>
<path fill="#F075AE" d="M220 0h20v72h-20z"/>
<path fill="#CFECF3" d="M240 0h20v72h-20z"/>
<path fill="#DAF9DE" d="M260 0h20v72h-20z"/>
<path fill="#F6FFDC" d="M280 0h20v72h-20z"/>
<path fill="#F7DB91" d="M300 0h20v72h-20z"/>
<path fill="#FFFDCE" d="M320 0h20v72h-20z"/>
<path fill="#9BC264" d="M340 0h20v72h-20z"/>
<path fill="#B8A7D1" d="M360 0h20v72h-20z"/>
<path fill="#D1B3A1" d="M380 0h20v72h-20z"/>
<path fill="#F9B2D7" d="M400 0h20v72h-20z"/>
<path fill="#F075AE" d="M420 0h20v72h-20z"/>
<path fill="#CFECF3" d="M440 0h20v72h-20z"/>
<path fill="#DAF9DE" d="M460 0h20v72h-20z"/>
<path fill="#F6FFDC" d="M480 0h20v72h-20z"/>
<path fill="#F7DB91" d="M500 0h20v72h-20z"/>
<path fill="#FFFDCE" d="M520 0h20v72h-20z"/>
<path fill="#9BC264" d="M540 0h20v72h-20z"/>
<path fill="#B8A7D1" d="M560 0h20v72h-20z"/>
<path fill="#D1B3A1" d="M580 0h20v72h-20z"/>
<path fill="#F9B2D7" d="M600 0h20v72h-20z"/>
<path fill="#F075AE" d="M620 0h20v72h-20z"/>
<path fill="#CFECF3" d="M640 0h20v72h-20z"/>
<path fill="#DAF9DE" d="M660 0h20v72h-20z"/>
<path fill="#F6FFDC" d="M680 0h20v72h-20z"/>
<path fill="#F7DB91" d="M700 0h20v72h-20z"/>
<path fill="#FFFDCE" d="M720 0h20v72h-20z"/>
<path fill="#9BC264" d="M740 0h20v72h-20z"/>
<path fill="#B8A7D1" d="M760 0h20v72h-20z"/>
<path fill="#D1B3A1" d="M780 0h20v72h-20z"/>
<path fill="#F9B2D7" d="M800 0h20v72h-20z"/>
<path fill="#F075AE" d="M820 0h20v72h-20z"/>
<path fill="#CFECF3" d="M840 0h20v72h-20z"/>
<path fill="#DAF9DE" d="M860 0h20v72h-20z"/>
<path fill="#F6FFDC" d="M880 0h20v72h-20z"/>
<path fill="#F7DB91" d="M900 0h20v72h-20z"/>
<path fill="#FFFDCE" d="M920 0h20v72h-20z"/>
<path fill="#9BC264" d="M940 0h20v72h-20z"/>
<path fill="#B8A7D1" d="M960 0h20v72h-20z"/>
<path fill="#D1B3A1" d="M980 0h20v72h-20z"/>
<path fill="#F9B2D7" d="M1000 0h20v72h-20z"/>
<path fill="#F075AE" d="M1020 0h20v72h-20z"/>
<path fill="#CFECF3" d="M1040 0h20v72h-20z"/>
<path fill="#DAF9DE" d="M1060 0h20v72h-20z"/>
<path fill="#F6FFDC" d="M1080 0h20v72h-20z"/>
<path fill="#F7DB91" d="M1100 0h20v72h-20z"/>
<path fill="#FFFDCE" d="M1120 0h20v72h-20z"/>
<path fill="#9BC264" d="M1140 0h20v72h-20z"/>
<path fill="#B8A7D1" d="M1160 0h20v72h-20z"/>
<path fill="#D1B3A1" d="M1180 0h20v72h-20z"/>
<path fill="#F9B2D7" d="M1200 0h20v72h-20z"/>
<path fill="#F075AE" d="M1220 0h20v72h-20z"/>
<path fill="#CFECF3" d="M1240 0h20v72h-20z"/>
<path fill="#DAF9DE" d="M1260 0h20v72h-20z"/>
</svg>